<svg id="Слой_1" data-name="Слой 1" xmlns="http://www.w3.org/2000/svg" viewBox="0 0 849.55 297.27"><defs><style>.cls-1{fill:#b17f49;}.cls-2{fill:#c99d66;}.cls-3{fill:#7e4e24;}.cls-4{fill:#925f36;}.cls-5{fill:#4c2a16;}.cls-6{fill:#683b11;}.cls-7{fill:#422918;}.cls-8{fill:#39a935;}.cls-9{fill:#009f3a;}.cls-10{fill:#499436;}.cls-11{fill:#2d8329;}.cls-12{fill:#469336;}.cls-13{fill:#29822a;}.cls-14{fill:#76b72a;}.cls-15{fill:#76b72f;}.cls-16{font-size:219px;fill:#1d1d1b;font-family:LoRes15OT-Bold, "LoRes 15 OT";font-weight:700;}.cls-17{fill:#30210b;}.cls-18{fill:#42210b;}.cls-19{fill:#603813;}.cls-20{fill:#754c24;}.cls-21{fill:#a67c52;letter-spacing:0em;}.cls-22{fill:none;}.cls-23{fill:#2a8335;}.cls-24{fill:#459235;}.cls-25{fill:#75b630;}</style></defs><rect class="cls-1" x="61.78" y="177.68" width="14.66" height="14.74"/><rect class="cls-2" x="61.78" y="162.94" width="14.66" height="14.74"/><rect class="cls-1" x="76.44" y="177.68" width="14.66" height="14.74"/><rect class="cls-2" x="91.1" y="177.68" width="14.66" height="14.74"/><rect class="cls-3" x="105.77" y="177.68" width="14.66" height="14.74"/><rect class="cls-4" x="76.44" y="162.94" width="14.66" height="14.74"/><rect class="cls-5" x="91.1" y="162.94" width="14.66" height="14.74"/><rect class="cls-2" x="120.43" y="162.94" width="14.66" height="14.74"/><rect class="cls-3" x="120.43" y="148.2" width="14.66" height="14.74"/><rect class="cls-6" x="120.43" y="133.46" width="14.66" height="14.74"/><rect class="cls-6" x="105.77" y="118.73" width="14.66" height="14.74"/><rect class="cls-6" x="91.1" y="103.99" width="14.66" height="14.74"/><rect class="cls-4" x="76.44" y="89.25" width="14.66" height="14.74"/><rect class="cls-1" x="61.78" y="89.25" width="14.66" height="14.74"/><rect class="cls-2" x="61.78" y="74.51" width="14.66" height="14.74"/><rect class="cls-1" x="76.44" y="59.78" width="14.66" height="14.74"/><rect class="cls-3" x="47.11" y="103.99" width="14.66" height="14.74"/><rect class="cls-1" x="47.11" y="162.94" width="14.66" height="14.74"/><rect class="cls-6" x="47.11" y="118.73" width="14.66" height="14.74"/><rect class="cls-3" x="47.11" y="133.46" width="14.66" height="14.74"/><rect class="cls-3" x="47.11" y="148.2" width="14.66" height="14.74"/><rect class="cls-7" x="32.45" y="118.73" width="14.66" height="14.74"/><rect class="cls-5" x="32.45" y="133.46" width="14.66" height="14.74"/><rect class="cls-7" x="32.45" y="148.2" width="14.66" height="14.74"/><rect class="cls-3" x="32.45" y="162.94" width="14.66" height="14.74"/><rect class="cls-4" x="47.11" y="177.68" width="14.66" height="14.74"/><rect class="cls-6" x="61.78" y="103.99" width="14.66" height="14.74"/><rect class="cls-7" x="61.78" y="118.73" width="14.66" height="14.74"/><rect class="cls-6" x="61.78" y="133.46" width="14.66" height="14.74"/><rect class="cls-4" x="61.78" y="148.2" width="14.66" height="14.74"/><rect class="cls-6" x="76.44" y="148.2" width="14.66" height="14.74"/><rect class="cls-7" x="76.44" y="133.46" width="14.66" height="14.74"/><rect class="cls-1" x="105.77" y="162.94" width="14.66" height="14.74"/><rect class="cls-5" x="76.44" y="118.73" width="14.66" height="14.74"/><rect class="cls-7" x="91.1" y="148.2" width="14.66" height="14.74"/><rect class="cls-3" x="105.77" y="133.46" width="14.66" height="14.74"/><rect class="cls-8" x="32.45" y="177.68" width="14.66" height="14.74"/><rect class="cls-9" x="17.79" y="162.94" width="14.66" height="14.74"/><rect class="cls-10" x="61.78" y="192.42" width="14.66" height="14.74"/><rect class="cls-11" x="32.45" y="192.42" width="14.66" height="14.74"/><rect class="cls-8" x="47.11" y="192.42" width="14.66" height="14.74"/><rect class="cls-8" x="3.13" y="133.46" width="14.66" height="14.74"/><rect class="cls-12" x="17.79" y="177.68" width="14.66" height="14.74"/><rect class="cls-12" x="17.79" y="148.2" width="14.66" height="14.74"/><rect class="cls-8" x="76.44" y="177.68" width="14.66" height="14.74"/><rect class="cls-12" x="76.44" y="162.94" width="14.66" height="14.74"/><rect class="cls-8" x="91.1" y="148.2" width="14.66" height="14.74"/><rect class="cls-13" x="76.44" y="192.42" width="14.66" height="14.74"/><rect class="cls-12" x="91.1" y="192.42" width="14.66" height="14.74"/><rect class="cls-8" x="105.77" y="177.68" width="14.66" height="14.74"/><rect class="cls-14" x="120.43" y="177.68" width="14.66" height="14.74"/><rect class="cls-8" x="135.09" y="162.94" width="14.66" height="14.74"/><rect class="cls-8" x="105.77" y="192.42" width="14.66" height="14.74"/><rect class="cls-8" x="76.44" y="133.46" width="14.66" height="14.74"/><rect class="cls-15" x="135.09" y="148.2" width="14.66" height="14.74"/><rect class="cls-8" x="149.75" y="133.46" width="14.66" height="14.74"/><rect class="cls-8" x="135.09" y="118.73" width="14.66" height="14.74"/><text class="cls-16" transform="translate(168.18 207.15)">F<tspan class="cls-17" x="87.6" y="0">u</tspan><tspan class="cls-18" x="204.32" y="0">n</tspan><tspan class="cls-19" x="321.05" y="0">d</tspan><tspan class="cls-20" x="437.77" y="0">u</tspan><tspan class="cls-21" x="554.5" y="0">k</tspan></text><text x="12.83" y="-58.54"/><line class="cls-22" x1="16.22" y1="43.18" x2="823.59" y2="37.81"/><rect class="cls-23" x="160.4" y="282.54" width="14.66" height="14.74"/><rect class="cls-23" x="57.76" y="282.54" width="14.66" height="14.74"/><rect class="cls-23" x="72.42" y="282.54" width="14.66" height="14.74"/><rect class="cls-23" x="87.08" y="282.54" width="14.66" height="14.74"/><rect class="cls-23" x="101.75" y="282.54" width="14.66" height="14.74"/><rect class="cls-23" x="116.41" y="282.54" width="14.66" height="14.74"/><rect class="cls-23" x="131.07" y="282.54" width="14.66" height="14.74"/><rect class="cls-23" x="145.73" y="282.54" width="14.66" height="14.74"/><rect class="cls-23" x="175.06" y="282.54" width="14.66" height="14.74"/><rect class="cls-23" x="189.72" y="282.54" width="14.66" height="14.74"/><rect class="cls-23" x="204.39" y="282.54" width="14.66" height="14.74"/><rect class="cls-23" x="219.05" y="282.54" width="14.66" height="14.74"/><rect class="cls-23" x="233.71" y="282.54" width="14.66" height="14.74"/><rect class="cls-23" x="248.37" y="282.54" width="14.66" height="14.74"/><rect class="cls-23" x="263.04" y="282.54" width="14.66" height="14.74"/><rect class="cls-23" x="277.7" y="282.54" width="14.66" height="14.74"/><rect class="cls-23" x="292.36" y="282.54" width="14.66" height="14.74"/><rect class="cls-23" x="307.03" y="282.54" width="14.66" height="14.74"/><rect class="cls-23" x="321.69" y="282.54" width="14.66" height="14.74"/><rect class="cls-23" x="336.35" y="282.54" width="14.66" height="14.74"/><rect class="cls-23" x="351.01" y="282.54" width="14.66" height="14.74"/><rect class="cls-23" x="365.68" y="282.54" width="14.66" height="14.74"/><rect class="cls-23" x="380.34" y="282.54" width="14.66" height="14.74"/><rect class="cls-23" x="395" y="282.54" width="14.66" height="14.74"/><rect class="cls-23" x="409.67" y="282.54" width="14.66" height="14.74"/><rect class="cls-23" x="424.33" y="282.54" width="14.66" height="14.74"/><rect class="cls-23" x="438.99" y="282.54" width="14.66" height="14.74"/><rect class="cls-23" x="453.65" y="282.54" width="14.66" height="14.74"/><rect class="cls-23" x="468.32" y="282.54" width="14.66" height="14.74"/><rect class="cls-23" x="482.98" y="282.54" width="14.66" height="14.74"/><rect class="cls-23" x="497.64" y="282.54" width="14.66" height="14.74"/><rect class="cls-23" x="512.31" y="282.54" width="14.66" height="14.74"/><rect class="cls-23" x="526.97" y="282.54" width="14.66" height="14.74"/><rect class="cls-23" x="541.63" y="282.54" width="14.66" height="14.74"/><rect class="cls-23" x="556.29" y="282.54" width="14.66" height="14.74"/><rect class="cls-23" x="570.96" y="282.54" width="14.66" height="14.74"/><rect class="cls-23" x="585.62" y="282.54" width="14.66" height="14.74"/><rect class="cls-23" x="600.28" y="282.54" width="14.66" height="14.74"/><rect class="cls-23" x="614.95" y="282.54" width="14.66" height="14.74"/><rect class="cls-23" x="629.61" y="282.54" width="14.66" height="14.74"/><rect class="cls-23" x="644.27" y="282.54" width="14.66" height="14.74"/><rect class="cls-23" x="658.93" y="282.54" width="14.66" height="14.74"/><rect class="cls-23" x="673.6" y="282.54" width="14.66" height="14.74"/><rect class="cls-23" x="688.26" y="282.54" width="14.66" height="14.74"/><rect class="cls-23" x="702.92" y="282.54" width="14.66" height="14.74"/><rect class="cls-23" x="717.59" y="282.54" width="14.66" height="14.74"/><rect class="cls-23" x="732.25" y="282.54" width="14.66" height="14.74"/><rect class="cls-23" x="746.91" y="282.54" width="14.66" height="14.74"/><rect class="cls-24" x="43.1" y="267.8" width="14.66" height="14.74"/><rect class="cls-24" x="28.43" y="267.8" width="14.66" height="14.74"/><rect class="cls-25" x="14.66" y="253.06" width="14.66" height="14.74"/><rect class="cls-25" y="253.06" width="14.66" height="14.74"/><rect class="cls-24" x="805.56" y="267.8" width="14.66" height="14.74"/><rect class="cls-24" x="790.9" y="267.8" width="14.66" height="14.74"/><rect class="cls-25" x="834.89" y="253.06" width="14.66" height="14.74"/><rect class="cls-25" x="820.23" y="253.06" width="14.66" height="14.74"/><rect class="cls-23" x="761.13" y="282.54" width="14.66" height="14.74"/><rect class="cls-23" x="775.79" y="282.54" width="14.66" height="14.74"/><rect class="cls-23" x="160.4" width="14.66" height="14.74"/><rect class="cls-23" x="57.76" width="14.66" height="14.74"/><rect class="cls-23" x="72.42" width="14.66" height="14.74"/><rect class="cls-23" x="87.08" width="14.66" height="14.74"/><rect class="cls-23" x="101.75" width="14.66" height="14.74"/><rect class="cls-23" x="116.41" width="14.66" height="14.74"/><rect class="cls-23" x="131.07" width="14.66" height="14.74"/><rect class="cls-23" x="145.73" width="14.66" height="14.74"/><rect class="cls-23" x="175.06" width="14.66" height="14.74"/><rect class="cls-23" x="189.72" width="14.66" height="14.74"/><rect class="cls-23" x="204.39" width="14.66" height="14.74"/><rect class="cls-23" x="219.05" width="14.66" height="14.74"/><rect class="cls-23" x="233.71" width="14.66" height="14.74"/><rect class="cls-23" x="248.37" width="14.66" height="14.74"/><rect class="cls-23" x="263.04" width="14.66" height="14.74"/><rect class="cls-23" x="277.7" width="14.66" height="14.74"/><rect class="cls-23" x="292.36" width="14.66" height="14.74"/><rect class="cls-23" x="307.03" width="14.66" height="14.74"/><rect class="cls-23" x="321.69" width="14.66" height="14.74"/><rect class="cls-23" x="336.35" width="14.66" height="14.74"/><rect class="cls-23" x="351.01" width="14.66" height="14.74"/><rect class="cls-23" x="365.68" width="14.66" height="14.74"/><rect class="cls-23" x="380.34" width="14.66" height="14.74"/><rect class="cls-23" x="395" width="14.66" height="14.74"/><rect class="cls-23" x="409.67" width="14.66" height="14.74"/><rect class="cls-23" x="424.33" width="14.66" height="14.74"/><rect class="cls-23" x="438.99" width="14.66" height="14.74"/><rect class="cls-23" x="453.65" width="14.66" height="14.74"/><rect class="cls-23" x="468.32" width="14.66" height="14.74"/><rect class="cls-23" x="482.98" width="14.66" height="14.74"/><rect class="cls-23" x="497.64" width="14.66" height="14.74"/><rect class="cls-23" x="512.31" width="14.66" height="14.74"/><rect class="cls-23" x="526.97" width="14.66" height="14.74"/><rect class="cls-23" x="541.63" width="14.66" height="14.74"/><rect class="cls-23" x="556.29" width="14.66" height="14.74"/><rect class="cls-23" x="570.96" width="14.66" height="14.74"/><rect class="cls-23" x="585.62" width="14.66" height="14.74"/><rect class="cls-23" x="600.28" width="14.66" height="14.74"/><rect class="cls-23" x="614.95" width="14.66" height="14.74"/><rect class="cls-23" x="629.61" width="14.66" height="14.74"/><rect class="cls-23" x="644.27" width="14.66" height="14.74"/><rect class="cls-23" x="658.93" width="14.66" height="14.74"/><rect class="cls-23" x="673.6" width="14.66" height="14.74"/><rect class="cls-23" x="688.26" width="14.66" height="14.74"/><rect class="cls-23" x="702.92" width="14.66" height="14.74"/><rect class="cls-23" x="717.59" width="14.66" height="14.74"/><rect class="cls-23" x="732.25" width="14.66" height="14.74"/><rect class="cls-23" x="746.91" width="14.66" height="14.74"/><rect class="cls-24" x="43.1" y="14.74" width="14.66" height="14.74"/><rect class="cls-24" x="28.43" y="14.74" width="14.66" height="14.74"/><rect class="cls-25" x="14.66" y="29.48" width="14.66" height="14.74"/><rect class="cls-25" y="29.48" width="14.66" height="14.74"/><rect class="cls-24" x="805.56" y="14.74" width="14.66" height="14.74"/><rect class="cls-24" x="790.9" y="14.74" width="14.66" height="14.74"/><rect class="cls-25" x="834.89" y="29.48" width="14.66" height="14.74"/><rect class="cls-25" x="820.23" y="29.48" width="14.66" height="14.74"/><rect class="cls-23" x="761.13" width="14.66" height="14.74"/><rect class="cls-23" x="775.79" width="14.66" height="14.74"/></svg>